<svg width="325" height="106" viewBox="0 0 325 106" fill="none" xmlns="http://www.w3.org/2000/svg">
<path fill-rule="evenodd" clip-rule="evenodd" d="M72.4898 46.3233L80.6036 36.085C80.6036 36.085 116.536 36.085 127.147 36.1696C138.916 36.1696 141.948 44.8849 138.649 49.031L133.299 55.8002H115.288C111.9 55.8002 112.97 54.4464 113.505 53.7694C114.194 52.9138 115.136 51.6989 116.011 50.57L116.012 50.5698C116.608 49.8009 117.173 49.0718 117.606 48.5233C118.765 47.0849 118.765 46.3233 116.536 46.3233H72.4898ZM85.4183 48.8618L69.1906 69.4232C69.1906 69.4232 98.1686 69.4232 108.69 69.5078C121.708 69.5078 129.019 61.2155 131.248 58.3386H104.321C101.09 58.3386 101.913 57.1845 102.46 56.417C102.487 56.3797 102.513 56.3432 102.538 56.3079C103.227 55.4523 104.169 54.2374 105.044 53.1085L105.044 53.1082C105.64 52.3393 106.206 51.6103 106.639 51.0618C107.798 49.6233 107.798 48.8618 105.569 48.8618H85.4183ZM36.1111 58.254H73.738L71.8655 60.6232H36.1111V58.254ZM70.2606 62.654H36.1111V65.0232H68.3882L70.2606 62.654ZM36.1111 67.054H66.7832L65 69.4232H36.1111V67.054ZM288.889 69.4232H251.351L253.224 67.054H288.889V69.4232ZM254.829 65.0232H288.889V62.654H256.701L254.829 65.0232ZM260.178 58.254H288.889V60.6232H258.306L260.178 58.254ZM162.099 58.254L153.272 69.4232H130.089L138.916 58.254H162.099ZM186.797 69.4232L195.624 58.254H172.442L163.614 69.4232H186.797ZM203.203 58.254C203.203 58.254 201.509 60.454 200.706 61.4694C197.764 65.1078 200.35 69.4232 209.89 69.4232H247.16L255.988 58.254H203.203ZM197.675 55.7156H140.878L156.392 36.085H179.575L170.748 47.3387H181.09L190.007 36.085H213.189L197.675 55.7156ZM229.774 55.7156L245.288 36.085H220.679L205.165 55.7156H229.774Z" fill="#D40511"/>
</svg>
