<svg width="144" height="47" viewBox="0 0 144 47" fill="none" xmlns="http://www.w3.org/2000/svg">
<path fill-rule="evenodd" clip-rule="evenodd" d="M32.1186 20.5397L35.7136 16C35.7136 16 51.6346 16 56.3358 16.0375C61.5507 16.0375 62.8939 19.9019 61.4321 21.7402L59.0618 24.7417H51.0815C49.5803 24.7417 50.0544 24.1414 50.2914 23.8412C50.5969 23.4618 51.0143 22.9231 51.4021 22.4225L51.4027 22.4216L51.4029 22.4215C51.6667 22.0809 51.9168 21.7581 52.1087 21.5151C52.6223 20.8773 52.6223 20.5397 51.6346 20.5397H32.1186ZM37.8469 21.6652L30.6568 30.782C30.6568 30.782 43.4963 30.782 48.158 30.8195C53.9259 30.8195 57.1654 27.1428 58.1531 25.8672H46.2222C44.7906 25.8672 45.1553 25.3555 45.3977 25.0152L45.4321 24.9668C45.7376 24.5874 46.1549 24.0487 46.5427 23.5481C46.8069 23.2071 47.0573 22.8839 47.2494 22.6407C47.7629 22.0029 47.7629 21.6652 46.7753 21.6652H37.8469ZM16 25.8297H32.6716L31.842 26.8802H16V25.8297ZM31.1309 27.7806H16V28.8311H30.3012L31.1309 27.7806ZM16 29.7315H29.5901L28.8 30.782H16V29.7315ZM128 30.782H111.368L112.198 29.7315H128V30.782ZM112.909 28.8311H128V27.7806H113.738L112.909 28.8311ZM115.279 25.8297H128V26.8802H114.449L115.279 25.8297ZM71.8222 25.8297L67.9111 30.782H57.6395L61.5506 25.8297H71.8222ZM82.7654 30.782L86.6765 25.8297H76.4049L72.4938 30.782H82.7654ZM90.0346 25.8297C90.0346 25.8297 89.2839 26.8051 88.9284 27.2554C87.6247 28.8686 88.7704 30.782 92.9975 30.782H109.511L113.422 25.8297H90.0346ZM87.5852 24.7041H62.4197L69.2938 16H79.5654L75.6543 20.9899H80.237L84.1876 16H94.4592L87.5852 24.7041ZM101.807 24.7041L108.681 16H97.7778L90.9037 24.7041H101.807Z" fill="#D40511"/>
</svg>
